<?xml version="1.0" encoding="iso-8859-1"?>
<!-- Generator: Adobe Illustrator 19.0.0, SVG Export Plug-In . SVG Version: 6.00 Build 0)  -->
<svg version="1.1" id="Layer_1" xmlns="http://www.w3.org/2000/svg" xmlns:xlink="http://www.w3.org/1999/xlink" x="0px" y="0px"
	 viewBox="0 0 512 512" style="enable-background:new 0 0 512 512;" xml:space="preserve">
<circle style="fill:#79C9DB;" cx="256" cy="256" r="256"/>
<path style="fill:#99DBFF;" d="M256,512C114.615,512,0,397.385,0,256S114.615,0,256,0V512z"/>
<path style="fill:#5251E5;" d="M509.863,289.231C493.572,414.916,386.124,512,256,512C126.701,512,19.789,416.141,2.457,291.615
	L509.863,289.231z"/>
<path style="fill:#6694FF;" d="M255.999,289.229L256,512C126.713,512,19.809,416.16,2.463,291.649L255.999,289.229z"/>
<circle style="fill:#FEAB00;" cx="356.291" cy="140.145" r="48.509"/>
<g>
	<path style="fill:#312C90;" d="M122.913,400.298c23.786,0,46.502-6.266,66.541-18.246c20.048,11.981,42.767,18.246,66.553,18.246
		c23.782,0,46.496-6.262,66.54-18.239c20.044,11.977,42.758,18.239,66.54,18.239c23.786,0,46.502-6.266,66.543-18.246
		c5.769,3.447,11.764,6.404,17.936,8.893c7.696-12.383,14.365-25.468,19.888-39.142c-8.719-3.062-16.938-7.536-24.422-13.363
		c-7.884-6.138-18.931-6.138-26.813,0.003c-15.299,11.919-33.671,18.218-53.132,18.218c-19.456,0-37.831-6.298-53.137-18.211
		c-7.882-6.135-18.921-6.135-26.803,0c-15.306,11.913-33.681,18.211-53.139,18.211c-19.462,0-37.841-6.301-53.152-18.221
		c-7.884-6.138-18.931-6.138-26.813,0.003c-15.299,11.919-33.671,18.218-53.13,18.218c-19.463,0-37.843-6.301-53.151-18.221
		c-7.885-6.14-18.931-6.138-26.813,0.001c-7.476,5.824-15.69,10.297-24.403,13.359c5.521,13.674,12.191,26.759,19.887,39.142
		c6.169-2.487,12.161-5.444,17.926-8.89C76.407,394.032,99.126,400.298,122.913,400.298z"/>
	<path style="fill:#312C90;" d="M442.218,406.796c-15.3,11.919-33.673,18.218-53.132,18.218c-19.456,0-37.83-6.298-53.137-18.212
		c-7.882-6.135-18.921-6.135-26.803,0c-15.308,11.914-33.683,18.212-53.139,18.212c-19.462,0-37.841-6.301-53.152-18.223
		c-7.884-6.138-18.931-6.138-26.813,0.003c-15.3,11.919-33.671,18.218-53.13,18.218c-19.462,0-37.841-6.301-53.151-18.221
		c-6.54-5.092-15.248-5.945-22.528-2.591c17.837,25.081,40.08,46.809,65.601,64.055c3.335,0.252,6.694,0.393,10.077,0.393
		c23.786,0,46.502-6.266,66.543-18.247c20.047,11.981,42.765,18.247,66.553,18.247c23.782,0,46.495-6.263,66.54-18.239
		c20.044,11.975,42.758,18.239,66.54,18.239c3.383,0,6.742-0.141,10.077-0.393c25.519-17.245,47.761-38.972,65.597-64.049
		C457.476,400.845,448.759,401.699,442.218,406.796z"/>
</g>
<g>
	<path style="fill:#4D5CAE;" d="M256.007,356.662c-19.462,0-37.841-6.301-53.152-18.221c-7.884-6.138-18.931-6.138-26.813,0.003
		c-15.299,11.919-33.671,18.218-53.13,18.218c-19.463,0-37.843-6.301-53.151-18.221c-7.885-6.14-18.931-6.138-26.813,0.001
		c-7.476,5.824-15.69,10.297-24.403,13.359c5.521,13.674,12.191,26.759,19.887,39.142c6.169-2.487,12.161-5.444,17.926-8.89
		c20.047,11.981,42.765,18.246,66.553,18.246c23.786,0,46.502-6.266,66.541-18.246c20.048,11.981,42.767,18.246,66.553,18.246
		v-43.636H256.007z"/>
	<path style="fill:#4D5CAE;" d="M256.007,425.014c-19.462,0-37.841-6.301-53.152-18.223c-7.884-6.138-18.931-6.138-26.813,0.003
		c-15.3,11.919-33.671,18.218-53.13,18.218c-19.462,0-37.841-6.301-53.151-18.221c-6.54-5.092-15.248-5.945-22.528-2.591
		c17.837,25.081,40.08,46.809,65.601,64.055c3.335,0.252,6.694,0.393,10.077,0.393c23.786,0,46.502-6.266,66.543-18.247
		c20.047,11.981,42.765,18.247,66.553,18.247L256.007,425.014L256.007,425.014z"/>
</g>
<path style="fill:#312C90;" d="M122.913,331.946c23.786,0,46.502-6.266,66.543-18.246c20.047,11.981,42.765,18.246,66.553,18.246
	c23.782,0,46.496-6.262,66.54-18.239c20.044,11.977,42.758,18.239,66.54,18.239c23.786,0,46.502-6.266,66.543-18.246
	c14.016,8.377,29.34,13.948,45.42,16.55c4.177-13.807,7.225-28.102,9.024-42.785c-14.943-2.068-28.951-7.961-41.043-17.376
	c-7.884-6.138-18.931-6.138-26.813,0.003c-15.299,11.919-33.671,18.218-53.132,18.218c-19.456,0-37.831-6.298-53.137-18.211
	c-7.882-6.135-18.921-6.135-26.803,0c-15.306,11.913-33.681,18.211-53.139,18.211c-19.462,0-37.841-6.301-53.152-18.221
	c-7.884-6.138-18.931-6.138-26.813,0.003c-15.299,11.919-33.671,18.218-53.13,18.218c-19.463,0-37.843-6.301-53.151-18.221
	c-7.885-6.138-18.931-6.137-26.813,0.003c-12.083,9.412-26.086,15.305-41.023,17.373c1.799,14.684,4.847,28.979,9.024,42.785
	c16.077-2.601,31.398-8.173,45.409-16.548C76.407,325.681,99.126,331.946,122.913,331.946z"/>
<path style="fill:#4D5CAE;" d="M256.007,288.31c-19.462,0-37.841-6.301-53.152-18.221c-7.884-6.138-18.931-6.138-26.813,0.003
	c-15.299,11.919-33.671,18.218-53.13,18.218c-19.463,0-37.843-6.301-53.151-18.221c-7.885-6.138-18.931-6.137-26.813,0.003
	c-12.083,9.412-26.086,15.305-41.023,17.373c1.799,14.684,4.847,28.979,9.024,42.785c16.077-2.601,31.398-8.173,45.409-16.548
	c20.047,11.981,42.765,18.246,66.553,18.246c23.786,0,46.502-6.266,66.543-18.246c20.047,11.981,42.765,18.246,66.553,18.246
	L256.007,288.31L256.007,288.31z"/>
<g>
</g>
<g>
</g>
<g>
</g>
<g>
</g>
<g>
</g>
<g>
</g>
<g>
</g>
<g>
</g>
<g>
</g>
<g>
</g>
<g>
</g>
<g>
</g>
<g>
</g>
<g>
</g>
<g>
</g>
</svg>
